<?xml version="1.0" encoding="UTF-8"?>
<svg id="Layer_1" xmlns="http://www.w3.org/2000/svg" version="1.1" viewBox="0 0 1024 1024">
  <!-- Generator: Adobe Illustrator 29.5.1, SVG Export Plug-In . SVG Version: 2.1.0 Build 141)  -->
  <defs>
    <style>
      .st0 {
        stroke: #0f87e7;
        stroke-linecap: round;
        stroke-miterlimit: 10;
        stroke-width: 14px;
      }

      .st0, .st1 {
        fill: #fff;
      }

      .st2, .st3 {
        fill: #0f87e7;
      }

      .st4 {
        fill: #131a21;
      }

      .st3 {
        font-family: SanFrancisco-Bold, 'San Francisco';
        font-size: 97.47px;
        font-weight: 700;
      }
    </style>
  </defs>
  <rect class="st2" x="138.62" y="407.08" width="233.19" height="229.11" rx="37.34" ry="37.34"/>
  <path class="st1" d="M333.94,467.38v126.97c0,7.5-6.08,13.57-13.58,13.57h-128c-7.49,0-13.57-6.07-13.57-13.57v-147.83c0-7.5,6.08-13.57,13.57-13.57h106.53l35.05,34.43Z"/>
  <path class="st4" d="M470.44,513.63c-1.36-9.66-8.13-16.52-18.9-16.52-12.71,0-20.76,10.85-20.76,28.72s8.05,28.72,20.84,28.72c10.42,0,17.29-5.68,18.9-15.93h23.05c-1.44,21.69-17.71,35.5-42.2,35.5-27.88,0-45.67-18.3-45.67-48.3s17.79-48.21,45.5-48.21c25.08,0,41.1,15.25,42.28,36.01h-23.05Z"/>
  <path class="st4" d="M558.39,572.52h-27.79l-32.37-93.29h26.44l19.83,71.17h.51l19.74-71.17h25.84l-32.2,93.29Z"/>
  <path class="st4" d="M681.68,544.05c-2.71,18.05-19.57,30.08-42.28,30.08-28.39,0-45.76-18.22-45.76-47.87s17.46-48.64,44.82-48.64,43.98,17.96,43.98,46.35v7.63h-64.4v1.53c0,13.47,8.73,22.54,21.78,22.54,9.32,0,16.69-4.41,19.06-11.61h22.79ZM618.3,516.25h40.25c-.42-12.2-8.39-20.17-19.83-20.17s-19.57,8.22-20.42,20.17Z"/>
  <path class="st4" d="M695.75,479.23h23.89v16.69h.51c3.14-11.52,11.18-17.79,22.2-17.79,2.46,0,5.17.34,6.95.93v21.95c-2.03-.93-5.85-1.53-8.9-1.53-12.54,0-19.91,7.8-19.91,20.84v52.19h-24.74v-93.29Z"/>
  <path class="st4" d="M754.98,545.66c0-16.95,12.96-26.52,36.77-27.96l23.3-1.44v-6.19c0-8.98-6.19-13.9-16.35-13.9-8.98,0-15.25,4.75-16.44,11.52h-22.62c.68-17.79,16.78-30.08,40.08-30.08s39.65,12.29,39.65,30.93v63.97h-23.89v-14.4h-.51c-5.08,9.74-16.61,15.51-28.55,15.51-17.96,0-31.44-11.27-31.44-27.96ZM815.05,538.28v-6.86l-19.57,1.36c-10.34.68-15.84,4.75-15.84,11.61s5.85,11.18,14.83,11.18c11.44,0,20.59-7.12,20.59-17.29Z"/>
  <path class="st2" d="M858.1,559.89c0-7.63,6.02-13.64,13.64-13.64s13.64,6.02,13.64,13.64-6.02,13.64-13.64,13.64-13.64-6.1-13.64-13.64Z"/>
  <text class="st3" transform="translate(202.55 519.07) scale(.94 1)"><tspan x="0" y="0">cv</tspan></text>
  <line class="st0" x1="210.59" y1="545.52" x2="301.02" y2="545.52"/>
  <line class="st0" x1="210.59" y1="577.31" x2="263.49" y2="577.31"/>
</svg>